<svg xmlns="http://www.w3.org/2000/svg" version="1.1" xmlns:xlink="http://www.w3.org/1999/xlink" xmlns:svgjs="http://svgjs.dev/svgjs" width="2000" height="510" viewBox="0 0 2000 510"><g transform="matrix(1,0,0,1,-1.2121212121212466,1.1904823696286257)"><svg viewBox="0 0 396 101" data-background-color="#000000" preserveAspectRatio="xMidYMid meet" height="510" width="2000" xmlns="http://www.w3.org/2000/svg" xmlns:xlink="http://www.w3.org/1999/xlink"><g id="tight-bounds" transform="matrix(1,0,0,1,0.2400000000000091,-0.23576219476959182)"><svg viewBox="0 0 395.52 101.4715243895392" height="101.4715243895392" width="395.52"><g><svg viewBox="0 0 565.3330064606339 145.03742403236683" height="101.4715243895392" width="395.52"><g transform="matrix(1,0,0,1,0,20.044969602157792)"><svg viewBox="0 0 395.52 104.94748482805124" height="104.94748482805124" width="395.52"><g id="textblocktransform"><svg viewBox="0 0 395.52 104.94748482805124" height="104.94748482805124" width="395.52" id="textblock"><g><svg viewBox="0 0 395.52 104.94748482805124" height="104.94748482805124" width="395.52"><g transform="matrix(1,0,0,1,0,0)"><svg width="395.52" viewBox="1.4 -38.85 148.29 39.35" height="104.94748482805124" data-palette-color="url(#0f1f051b-ce17-4ab7-b455-65fc4c05a256)"></svg></g></svg></g></svg></g></svg></g><g transform="matrix(1,0,0,1,420.295582428267,0)"><svg viewBox="0 0 145.03742403236683 145.03742403236683" height="145.03742403236683" width="145.03742403236683"><g data-palette-color="url(#7b838f78-e4c4-40e1-aa1a-8d3e71bcc71f)"></g></svg></g></svg></g><defs></defs><mask id="e73f9e91-cee0-42aa-ae93-1c293d20a208"><g id="SvgjsG1031"><svg viewBox="0 0 395.52 101.4715243895392" height="101.4715243895392" width="395.52"><g><svg viewBox="0 0 565.3330064606339 145.03742403236683" height="101.4715243895392" width="395.52"><g transform="matrix(1,0,0,1,0,20.044969602157792)"><svg viewBox="0 0 395.52 104.94748482805124" height="104.94748482805124" width="395.52"><g id="SvgjsG1030"><svg viewBox="0 0 395.52 104.94748482805124" height="104.94748482805124" width="395.52" id="SvgjsSvg1029"><g><svg viewBox="0 0 395.52 104.94748482805124" height="104.94748482805124" width="395.52"><g transform="matrix(1,0,0,1,0,0)"><svg width="395.52" viewBox="1.4 -38.85 148.29 39.35" height="104.94748482805124" data-palette-color="url(#0f1f051b-ce17-4ab7-b455-65fc4c05a256)"><path d="M6.25-16.35L6.25-16.35Q7.9-19.35 9.95-22.38 12-25.4 13.6-28.45L13.6-28.45 3.45-28.45 3.45-32.95 20.9-32.95Q19.15-29.95 17.25-26.95 15.35-23.95 13.6-20.95L13.6-20.95Q16.8-19.65 18.78-16.95 20.75-14.25 20.75-10.65L20.75-10.65Q20.75-8.4 19.85-6.38 18.95-4.35 17.43-2.85 15.9-1.35 13.88-0.48 11.85 0.4 9.6 0.4L9.6 0.4Q7.15 0.4 5.05-0.6 2.95-1.6 1.4-3.2L1.4-3.2 4.75-6.35Q5.65-5.25 6.88-4.65 8.1-4.05 9.55-4.05L9.55-4.05Q10.9-4.05 12.1-4.58 13.3-5.1 14.2-6 15.1-6.9 15.63-8.1 16.15-9.3 16.15-10.65L16.15-10.65Q16.15-12 15.63-13.18 15.1-14.35 14.2-15.25 13.3-16.15 12.1-16.65 10.9-17.15 9.55-17.15L9.55-17.15Q7.7-17.15 6.25-16.35ZM29.55-16.35L29.55-16.35Q31.2-19.35 33.25-22.38 35.3-25.4 36.9-28.45L36.9-28.45 26.75-28.45 26.75-32.95 44.2-32.95Q42.45-29.95 40.55-26.95 38.65-23.95 36.9-20.95L36.9-20.95Q40.1-19.65 42.07-16.95 44.05-14.25 44.05-10.65L44.05-10.65Q44.05-8.4 43.15-6.38 42.25-4.35 40.72-2.85 39.2-1.35 37.17-0.48 35.15 0.4 32.9 0.4L32.9 0.4Q30.45 0.4 28.35-0.6 26.25-1.6 24.7-3.2L24.7-3.2 28.05-6.35Q28.95-5.25 30.17-4.65 31.4-4.05 32.85-4.05L32.85-4.05Q34.2-4.05 35.4-4.58 36.6-5.1 37.5-6 38.4-6.9 38.92-8.1 39.45-9.3 39.45-10.65L39.45-10.65Q39.45-12 38.92-13.18 38.4-14.35 37.5-15.25 36.6-16.15 35.4-16.65 34.2-17.15 32.85-17.15L32.85-17.15Q31-17.15 29.55-16.35ZM71.94-10.4L71.94-10.4Q71.94-8.05 71.14-6.05 70.34-4.05 68.89-2.6 67.44-1.15 65.42-0.33 63.39 0.5 60.99 0.5L60.99 0.5Q59.74 0.5 58.62 0.23 57.49-0.05 56.55-0.53 55.59-1 54.89-1.58 54.2-2.15 53.84-2.75L53.84-2.75Q53.84-2.5 53.87-2.23 53.89-1.95 53.89-1.7L53.89-1.7 53.89 0 49.59 0 49.59-38.85 53.89-38.85 53.89-17.85Q54.3-18.45 54.97-19.07 55.64-19.7 56.57-20.23 57.49-20.75 58.64-21.1 59.8-21.45 61.2-21.45L61.2-21.45Q63.59-21.45 65.57-20.68 67.55-19.9 68.97-18.48 70.39-17.05 71.17-15 71.94-12.95 71.94-10.4ZM67.3-10.5L67.3-10.5Q67.3-11.95 66.84-13.18 66.39-14.4 65.55-15.3 64.69-16.2 63.5-16.73 62.3-17.25 60.8-17.25L60.8-17.25Q59.3-17.25 58.02-16.73 56.74-16.2 55.84-15.3 54.95-14.4 54.42-13.18 53.89-11.95 53.89-10.5L53.89-10.5Q53.89-9.05 54.42-7.8 54.95-6.55 55.84-5.65 56.74-4.75 58.02-4.23 59.3-3.7 60.8-3.7L60.8-3.7Q62.3-3.7 63.5-4.23 64.69-4.75 65.55-5.68 66.39-6.6 66.84-7.83 67.3-9.05 67.3-10.5ZM79.84-16.35L79.84-16.35Q81.49-19.35 83.54-22.38 85.59-25.4 87.19-28.45L87.19-28.45 77.04-28.45 77.04-32.95 94.49-32.95Q92.74-29.95 90.84-26.95 88.94-23.95 87.19-20.95L87.19-20.95Q90.39-19.65 92.37-16.95 94.34-14.25 94.34-10.65L94.34-10.65Q94.34-8.4 93.44-6.38 92.54-4.35 91.02-2.85 89.49-1.35 87.47-0.48 85.44 0.4 83.19 0.4L83.19 0.4Q80.74 0.4 78.64-0.6 76.54-1.6 74.99-3.2L74.99-3.2 78.34-6.35Q79.24-5.25 80.47-4.65 81.69-4.05 83.14-4.05L83.14-4.05Q84.49-4.05 85.69-4.58 86.89-5.1 87.79-6 88.69-6.9 89.22-8.1 89.74-9.3 89.74-10.65L89.74-10.65Q89.74-12 89.22-13.18 88.69-14.35 87.79-15.25 86.89-16.15 85.69-16.65 84.49-17.15 83.14-17.15L83.14-17.15Q81.29-17.15 79.84-16.35ZM117.34-4.2L117.34 0 97.64 0 109.64-17.25 102.64-17.25Q100.89-17.25 99.74-18.2 98.59-19.15 98.59-20.75L98.59-20.75 98.59-22.9 102.44-22.9 102.44-22.25Q102.44-21.4 102.84-21.15 103.24-20.9 104.14-20.9L104.14-20.9 117.49-20.9 105.84-4.2 117.34-4.2ZM121.29-28.9L121.29-28.9Q121.29-30.1 122.16-30.9 123.04-31.7 124.04-31.7L124.04-31.7Q125.04-31.7 125.89-30.9 126.74-30.1 126.74-28.9L126.74-28.9Q126.74-27.7 125.89-26.93 125.04-26.15 124.04-26.15L124.04-26.15Q123.04-26.15 122.16-26.93 121.29-27.7 121.29-28.9ZM126.09-20.9L126.09 0 121.84 0 121.84-20.9 126.09-20.9ZM149.54-4.2L149.54 0 129.84 0 141.84-17.25 134.84-17.25Q133.09-17.25 131.94-18.2 130.78-19.15 130.78-20.75L130.78-20.75 130.78-22.9 134.64-22.9 134.64-22.25Q134.64-21.4 135.03-21.15 135.44-20.9 136.34-20.9L136.34-20.9 149.69-20.9 138.03-4.2 149.54-4.2Z" opacity="1" transform="matrix(1,0,0,1,0,0)" fill="white" class="wordmark-text-0" id="SvgjsPath1028"></path></svg></g></svg></g></svg></g></svg></g><g transform="matrix(1,0,0,1,420.295582428267,0)"><svg viewBox="0 0 145.03742403236683 145.03742403236683" height="145.03742403236683" width="145.03742403236683"><g data-palette-color="url(#7b838f78-e4c4-40e1-aa1a-8d3e71bcc71f)"><rect width="39.64356256884693" height="145.03742403236683" fill="black" stroke="transparent" x="0" fill-opacity="1"></rect><rect width="39.64356256884693" height="145.03742403236683" fill="black" stroke="transparent" x="48.34580801078894" fill-opacity="0.75"></rect><rect width="39.64356256884693" height="145.03742403236683" fill="black" stroke="transparent" x="96.69161602157789" fill-opacity="0.5"></rect></g></svg></g></svg></g><defs><mask></mask></defs></svg><rect width="395.52" height="101.4715243895392" fill="black" stroke="none" visibility="hidden"></rect></g></mask><linearGradient x1="0" x2="1" y1="0.5" y2="0.5" id="0f1f051b-ce17-4ab7-b455-65fc4c05a256"><stop stop-color="#f00b51" offset="0"></stop><stop stop-color="#730062" offset="1"></stop></linearGradient><rect width="395.52" height="101.4715243895392" fill="url(#0f1f051b-ce17-4ab7-b455-65fc4c05a256)" mask="url(#e73f9e91-cee0-42aa-ae93-1c293d20a208)" data-fill-palette-color="primary"></rect><mask id="93347438-c036-4a05-a183-3b1d3e647c5f"><g id="SvgjsG1046"><svg viewBox="0 0 395.52 101.4715243895392" height="101.4715243895392" width="395.52"><g><svg viewBox="0 0 565.3330064606339 145.03742403236683" height="101.4715243895392" width="395.52"><g transform="matrix(1,0,0,1,0,20.044969602157792)"><svg viewBox="0 0 395.52 104.94748482805124" height="104.94748482805124" width="395.52"><g id="SvgjsG1045"><svg viewBox="0 0 395.52 104.94748482805124" height="104.94748482805124" width="395.52" id="SvgjsSvg1044"><g><svg viewBox="0 0 395.52 104.94748482805124" height="104.94748482805124" width="395.52"><g transform="matrix(1,0,0,1,0,0)"><svg width="395.52" viewBox="1.4 -38.85 148.29 39.35" height="104.94748482805124" data-palette-color="url(#0f1f051b-ce17-4ab7-b455-65fc4c05a256)"></svg></g></svg></g></svg></g></svg></g><g transform="matrix(1,0,0,1,420.295582428267,0)"><svg viewBox="0 0 145.03742403236683 145.03742403236683" height="145.03742403236683" width="145.03742403236683"><g data-palette-color="url(#7b838f78-e4c4-40e1-aa1a-8d3e71bcc71f)"><rect width="39.64356256884693" height="145.03742403236683" fill="white" stroke="transparent" x="0" fill-opacity="1"></rect><rect width="39.64356256884693" height="145.03742403236683" fill="white" stroke="transparent" x="48.34580801078894" fill-opacity="0.75"></rect><rect width="39.64356256884693" height="145.03742403236683" fill="white" stroke="transparent" x="96.69161602157789" fill-opacity="0.5"></rect></g></svg></g></svg></g><defs><mask></mask></defs><mask><g id="SvgjsG1043"><svg viewBox="0 0 395.52 101.4715243895392" height="101.4715243895392" width="395.52"><g><svg viewBox="0 0 565.3330064606339 145.03742403236683" height="101.4715243895392" width="395.52"><g transform="matrix(1,0,0,1,0,20.044969602157792)"><svg viewBox="0 0 395.52 104.94748482805124" height="104.94748482805124" width="395.52"><g id="SvgjsG1042"><svg viewBox="0 0 395.52 104.94748482805124" height="104.94748482805124" width="395.52" id="SvgjsSvg1041"><g><svg viewBox="0 0 395.52 104.94748482805124" height="104.94748482805124" width="395.52"><g transform="matrix(1,0,0,1,0,0)"><svg width="395.52" viewBox="1.4 -38.85 148.29 39.35" height="104.94748482805124" data-palette-color="url(#0f1f051b-ce17-4ab7-b455-65fc4c05a256)"><path d="M6.25-16.35L6.25-16.35Q7.9-19.35 9.95-22.38 12-25.4 13.6-28.45L13.6-28.45 3.45-28.45 3.45-32.95 20.9-32.95Q19.15-29.95 17.25-26.95 15.35-23.95 13.6-20.95L13.6-20.95Q16.8-19.65 18.78-16.95 20.75-14.25 20.75-10.65L20.75-10.65Q20.75-8.4 19.85-6.38 18.95-4.35 17.43-2.85 15.9-1.35 13.88-0.48 11.85 0.4 9.6 0.4L9.6 0.4Q7.15 0.4 5.05-0.6 2.95-1.6 1.4-3.2L1.4-3.2 4.75-6.35Q5.65-5.25 6.88-4.65 8.1-4.05 9.55-4.05L9.55-4.05Q10.9-4.05 12.1-4.58 13.3-5.1 14.2-6 15.1-6.9 15.63-8.1 16.15-9.3 16.15-10.65L16.15-10.65Q16.15-12 15.63-13.18 15.1-14.35 14.2-15.25 13.3-16.15 12.1-16.65 10.9-17.15 9.55-17.15L9.55-17.15Q7.7-17.15 6.25-16.35ZM29.55-16.35L29.55-16.35Q31.2-19.35 33.25-22.38 35.3-25.4 36.9-28.45L36.9-28.45 26.75-28.45 26.75-32.95 44.2-32.95Q42.45-29.95 40.55-26.95 38.65-23.95 36.9-20.95L36.9-20.95Q40.1-19.65 42.07-16.95 44.05-14.25 44.05-10.65L44.05-10.65Q44.05-8.4 43.15-6.38 42.25-4.35 40.72-2.85 39.2-1.35 37.17-0.48 35.15 0.4 32.9 0.4L32.9 0.4Q30.45 0.4 28.35-0.6 26.25-1.6 24.7-3.2L24.7-3.2 28.05-6.35Q28.95-5.25 30.17-4.65 31.4-4.05 32.85-4.05L32.85-4.05Q34.2-4.05 35.4-4.58 36.6-5.1 37.5-6 38.4-6.9 38.92-8.1 39.45-9.3 39.45-10.65L39.45-10.65Q39.45-12 38.92-13.18 38.4-14.35 37.5-15.25 36.6-16.15 35.4-16.65 34.2-17.15 32.85-17.15L32.85-17.15Q31-17.15 29.55-16.35ZM71.94-10.4L71.94-10.4Q71.94-8.05 71.14-6.05 70.34-4.05 68.89-2.6 67.44-1.15 65.42-0.33 63.39 0.5 60.99 0.5L60.99 0.5Q59.74 0.5 58.62 0.23 57.49-0.05 56.55-0.53 55.59-1 54.89-1.58 54.2-2.15 53.84-2.75L53.84-2.75Q53.84-2.5 53.87-2.23 53.89-1.95 53.89-1.7L53.89-1.7 53.89 0 49.59 0 49.59-38.85 53.89-38.85 53.89-17.85Q54.3-18.45 54.97-19.07 55.64-19.7 56.57-20.23 57.49-20.75 58.64-21.1 59.8-21.45 61.2-21.45L61.2-21.45Q63.59-21.45 65.57-20.68 67.55-19.9 68.97-18.48 70.39-17.05 71.17-15 71.94-12.95 71.94-10.4ZM67.3-10.5L67.3-10.5Q67.3-11.95 66.84-13.18 66.39-14.4 65.55-15.3 64.69-16.2 63.5-16.73 62.3-17.25 60.8-17.25L60.8-17.25Q59.3-17.25 58.02-16.73 56.74-16.2 55.84-15.3 54.95-14.4 54.42-13.18 53.89-11.95 53.89-10.5L53.89-10.5Q53.89-9.05 54.42-7.8 54.95-6.55 55.84-5.65 56.74-4.75 58.02-4.23 59.3-3.7 60.8-3.7L60.8-3.7Q62.3-3.7 63.5-4.23 64.69-4.75 65.55-5.68 66.39-6.6 66.84-7.83 67.3-9.05 67.3-10.5ZM79.84-16.35L79.84-16.35Q81.49-19.35 83.54-22.38 85.59-25.4 87.19-28.45L87.19-28.45 77.04-28.45 77.04-32.95 94.49-32.95Q92.74-29.95 90.84-26.95 88.94-23.95 87.19-20.95L87.19-20.95Q90.39-19.65 92.37-16.95 94.34-14.25 94.34-10.65L94.34-10.65Q94.34-8.4 93.44-6.38 92.54-4.35 91.02-2.85 89.49-1.35 87.47-0.48 85.44 0.4 83.19 0.4L83.19 0.4Q80.74 0.4 78.64-0.6 76.54-1.6 74.99-3.2L74.99-3.2 78.34-6.35Q79.24-5.25 80.47-4.65 81.69-4.05 83.14-4.05L83.14-4.05Q84.49-4.05 85.69-4.58 86.89-5.1 87.79-6 88.69-6.9 89.22-8.1 89.74-9.3 89.74-10.65L89.74-10.65Q89.74-12 89.22-13.18 88.69-14.35 87.79-15.25 86.89-16.15 85.69-16.65 84.49-17.15 83.14-17.15L83.14-17.15Q81.29-17.15 79.84-16.35ZM117.34-4.2L117.34 0 97.64 0 109.64-17.25 102.64-17.25Q100.89-17.25 99.74-18.2 98.59-19.15 98.59-20.75L98.59-20.75 98.59-22.9 102.44-22.9 102.44-22.25Q102.44-21.4 102.84-21.15 103.24-20.9 104.14-20.9L104.14-20.9 117.49-20.9 105.84-4.2 117.34-4.2ZM121.29-28.9L121.29-28.9Q121.29-30.1 122.16-30.9 123.04-31.7 124.04-31.7L124.04-31.7Q125.04-31.7 125.89-30.9 126.74-30.1 126.74-28.9L126.74-28.9Q126.74-27.7 125.89-26.93 125.04-26.15 124.04-26.15L124.04-26.15Q123.04-26.15 122.16-26.93 121.29-27.7 121.29-28.9ZM126.09-20.9L126.09 0 121.84 0 121.84-20.9 126.09-20.9ZM149.54-4.2L149.54 0 129.84 0 141.84-17.25 134.84-17.25Q133.09-17.25 131.94-18.2 130.78-19.15 130.78-20.75L130.78-20.75 130.78-22.9 134.64-22.9 134.64-22.25Q134.64-21.4 135.03-21.15 135.44-20.9 136.34-20.9L136.34-20.9 149.69-20.9 138.03-4.2 149.54-4.2Z" opacity="1" transform="matrix(1,0,0,1,0,0)" fill="black" class="wordmark-text-0" id="SvgjsPath1040"></path></svg></g></svg></g></svg></g></svg></g><g transform="matrix(1,0,0,1,420.295582428267,0)"><svg viewBox="0 0 145.03742403236683 145.03742403236683" height="145.03742403236683" width="145.03742403236683"><g data-palette-color="url(#7b838f78-e4c4-40e1-aa1a-8d3e71bcc71f)"><rect width="39.64356256884693" height="145.03742403236683" fill="black" stroke="transparent" x="0" fill-opacity="1"></rect><rect width="39.64356256884693" height="145.03742403236683" fill="black" stroke="transparent" x="48.34580801078894" fill-opacity="0.75"></rect><rect width="39.64356256884693" height="145.03742403236683" fill="black" stroke="transparent" x="96.69161602157789" fill-opacity="0.5"></rect></g></svg></g></svg></g><defs><mask></mask></defs></svg><rect width="395.52" height="101.4715243895392" fill="black" stroke="none" visibility="hidden"></rect></g></mask></svg><rect width="395.52" height="101.4715243895392" fill="black" stroke="none" visibility="hidden"></rect></g></mask><linearGradient x1="0" x2="1" y1="0.5" y2="0.5" id="7b838f78-e4c4-40e1-aa1a-8d3e71bcc71f"><stop stop-color="#f00b51" offset="0"></stop><stop stop-color="#730062" offset="1"></stop></linearGradient><rect width="395.52" height="101.4715243895392" fill="url(#7b838f78-e4c4-40e1-aa1a-8d3e71bcc71f)" mask="url(#93347438-c036-4a05-a183-3b1d3e647c5f)" data-fill-palette-color="accent"></rect></svg><rect width="395.52" height="101.4715243895392" fill="none" stroke="none" visibility="hidden"></rect></g></svg></g></svg>