<svg xmlns="http://www.w3.org/2000/svg" version="1.1" xmlns:xlink="http://www.w3.org/1999/xlink" xmlns:svgjs="http://svgjs.dev/svgjs" width="2000" height="2250" viewBox="0 0 2000 2250"><g transform="matrix(1,0,0,1,0,0)"><svg viewBox="0 0 320 360" data-background-color="#ffffff" preserveAspectRatio="xMidYMid meet" height="2250" width="2000" xmlns="http://www.w3.org/2000/svg" xmlns:xlink="http://www.w3.org/1999/xlink"><g id="tight-bounds" transform="matrix(1,0,0,1,0,0)"><svg viewBox="0 0 320 360" height="360" width="320"><g><svg></svg></g><g><svg viewBox="0 0 320 360" height="360" width="320"><g><path d="M320 187.111c0-45.764-20.238-86.866-52.203-114.908-28.043-31.964-69.145-52.203-114.908-52.203-84.302 0-152.889 68.587-152.889 152.889 0 45.753 20.231 86.848 52.185 114.891 28.043 31.975 69.152 52.22 114.926 52.22 0.299 0 0.59-0.021 0.889-0.021 0.299 0 0.59 0.021 0.889 0.021 83.456 0 151.111-67.655 151.111-151.111 0-0.299-0.021-0.59-0.021-0.889 0-0.299 0.021-0.59 0.021-0.889zM59.833 263.097c-15.093-21.255-24.071-47.143-24.256-75.097 0.48-72.928 59.492-131.943 132.423-132.423 27.954 0.185 53.845 9.163 75.097 24.256 24.366 23.627 39.57 56.64 39.57 93.056 0 71.559-58.219 129.778-129.778 129.778-36.416 0-69.429-15.204-93.056-39.57zM3.556 172.889c0-82.343 66.99-149.333 149.333-149.333 35.051 0 67.292 12.167 92.8 32.462-22.98-13.824-49.863-21.796-78.578-21.796-84.302 0-152.889 68.587-152.889 152.889 0 28.708 7.968 55.584 21.785 78.56-20.288-25.5-32.452-57.739-32.451-92.782zM167.111 318.667c-35.84 0-68.363-14.418-92.107-37.743 21.952 15.89 48.864 25.298 77.885 25.298 73.522 0 133.333-59.812 133.333-133.333 0-29.02-9.408-55.932-25.298-77.885 23.324 23.744 37.742 56.267 37.743 92.107 0 72.54-59.015 131.556-131.556 131.556z" fill="#000000" fill-rule="nonzero" stroke="none" stroke-width="1" stroke-linecap="butt" stroke-linejoin="miter" stroke-miterlimit="10" stroke-dasharray="" stroke-dashoffset="0" font-family="none" font-weight="none" font-size="none" text-anchor="none" style="mix-blend-mode: normal" data-fill-palette-color="tertiary"></path></g><g transform="matrix(1,0,0,1,66.88101299610604,99)"><svg viewBox="0 0 186.23797400778793 162" height="162" width="186.23797400778793"><g><svg viewBox="0 0 186.23797400778793 162" height="162" width="186.23797400778793"><g><svg viewBox="0 0 186.23797400778793 162" height="162" width="186.23797400778793"><g><svg viewBox="0 0 186.23797400778793 162" height="162" width="186.23797400778793"><g id="textblocktransform"><svg viewBox="0 0 186.23797400778793 162" height="162" width="186.23797400778793" id="textblock"><g><svg viewBox="0 0 186.23797400778793 162" height="162" width="186.23797400778793"><g transform="matrix(1,0,0,1,0,0)"><svg width="186.23797400778793" viewBox="-0.7999999999999998 -42.16 53.5060289375737 46.669999999999995" height="162" data-palette-color="#f00b51"><g transform="matrix(1,0,0,1,0,0)"><g><svg width="7.257352625049134" viewBox="-1.27 -40.36 35.879999999999995 44.36" height="9.0234375" data-palette-color="#f00b51" id="scriptelement" x="41.44867631252457" y="-9.0234375"><path d="M30.61 0L2.77 0 2.77-4.56 20.92-30.02 2.73-30.02 2.73-36.36 30.58-36.36 30.58-31.8 12.41-6.34 30.61-6.34 30.61 0Z" opacity="1" transform="matrix(1,0,0,1,0,0)" fill="#f00b51" class="undefined-123" data-fill-palette-color="primary" id="yy-123"></path></svg></g></g><path d="M3.2-3.22L6.76-9.08Q9.64-7.67 12.93-7.02 16.21-6.37 19.34-6.37L19.34-6.37Q22.12-6.37 24.15-6.82 26.17-7.28 27.49-8.06 28.81-8.84 29.44-9.91 30.08-10.99 30.08-12.23L30.08-12.23Q30.08-13.92 28.93-15.25 27.78-16.58 25.45-17.25 23.12-17.92 19.57-17.77 16.02-17.63 11.21-16.38L11.21-16.38 11.23-22.09 25.49-31.37 5.3-31.37 5.3-38.16 35.84-38.16 35.84-31.52 23.29-23.56Q26.73-23.56 29.44-22.68 32.15-21.8 34.01-20.26 35.86-18.73 36.84-16.63 37.82-14.53 37.82-12.11L37.82-12.11Q37.82-9.25 36.56-6.92 35.3-4.59 32.91-2.94 30.52-1.29 27.06-0.39 23.61 0.51 19.24 0.51L19.24 0.51Q14.6 0.51 10.67-0.48 6.74-1.46 3.2-3.22L3.2-3.22Z" opacity="1" transform="matrix(1,0,0,1,0,0)" fill="#f00b51" class="wordmark-text-0" data-fill-palette-color="primary" id="text-0"></path></svg></g></svg></g></svg></g></svg></g><g></g></svg></g></svg></g></svg></g></svg></g><defs></defs></svg><rect width="320" height="360" fill="none" stroke="none" visibility="hidden"></rect></g></svg></g></svg>